<?xml version="1.0" encoding="UTF-8" standalone="no"?>
<svg
   viewBox="0 0 599.54718 435.63892"
   height="435.63892"
   width="599.54718"
   xml:space="preserve"
   id="svg2"
   version="1.1"
   sodipodi:docname="logo.svg"
   inkscape:version="1.4 (86a8ad7, 2024-10-11)"
   xmlns:inkscape="http://www.inkscape.org/namespaces/inkscape"
   xmlns:sodipodi="http://sodipodi.sourceforge.net/DTD/sodipodi-0.dtd"
   xmlns="http://www.w3.org/2000/svg"
   xmlns:svg="http://www.w3.org/2000/svg"
   xmlns:rdf="http://www.w3.org/1999/02/22-rdf-syntax-ns#"
   xmlns:cc="http://creativecommons.org/ns#"
   xmlns:dc="http://purl.org/dc/elements/1.1/"><sodipodi:namedview
     id="namedview1"
     pagecolor="#ffffff"
     bordercolor="#000000"
     borderopacity="0.25"
     inkscape:showpageshadow="2"
     inkscape:pageopacity="0.0"
     inkscape:pagecheckerboard="0"
     inkscape:deskcolor="#d1d1d1"
     inkscape:zoom="0.71271872"
     inkscape:cx="82.781605"
     inkscape:cy="223.08941"
     inkscape:window-width="1920"
     inkscape:window-height="1009"
     inkscape:window-x="-8"
     inkscape:window-y="-8"
     inkscape:window-maximized="1"
     inkscape:current-layer="svg2" /><metadata
     id="metadata8"><rdf:RDF><cc:Work
         rdf:about=""><dc:format>image/svg+xml</dc:format><dc:type
           rdf:resource="http://purl.org/dc/dcmitype/StillImage" /></cc:Work></rdf:RDF></metadata><defs
     id="defs6" /><g
     transform="matrix(1.3333333,0,0,-1.3333333,-96.807331,614.40038)"
     id="g10"><g
       id="g12"><path
         id="path14"
         style="fill:#234ea0;fill-opacity:1;fill-rule:evenodd;stroke:none"
         d="m 231.8494,383.4326 1.5326,-10.188 6.8381,-39.956 c 0.4073,-1.7958 0.3971,-3.2338 0.6848,-5.0514 0.2531,-1.5979 0.8362,-2.8658 1.0746,-4.676 1.8321,-13.9076 4.6951,-27.3308 7.02,-41.2036 l 3.3282,-20.7399 c 1.4584,-5.8842 8.9305,-48.5708 8.7675,-50.8972 l 0.5891,-5.3567 c 1.4148,0.5933 0.9057,-0.2151 1.9511,1.675 0.7795,1.4074 0.6471,1.2331 0.7112,2.8905 -0.1267,1.8887 3.126,13.2781 3.9126,16.0073 1.3814,4.7837 2.8282,10.4745 4.4028,15.5301 l 8.7457,31.3861 c 1.6025,6.7961 16.1714,59.9182 17.7242,62.4407 l 10.3235,-53.0144 c 9.0556,-0.7007 50.8,-0.0159 63.207,0.0247 10.1942,0.0334 56.8967,-0.9726 62.2956,1.0426 -9.7682,0.5292 -109.2178,9.3013 -109.9854,9.8059 -1.7842,1.3478 -2.3321,10.7537 -3.4197,15.546 -2.3077,13.371 -4.1528,27.51 -6.7715,40.699 l -6.982,40.138 c -1.7331,6.8947 -3.4999,28.417 -5.9918,32.0258 -0.4859,-0.8841 -3.9697,-15.0738 -4.3926,-17.0832 -1.1633,-5.5282 -2.6348,-12.17 -4.1732,-17.6485 -3.1507,-11.2221 -5.707,-23.5157 -8.7341,-35.2815 -3.0098,-11.696 -5.6211,-22.6403 -8.5654,-34.9367 -1.3669,-5.7041 -2.8746,-11.6858 -4.3229,-17.4512 -0.7503,-2.9835 -1.6721,-5.6676 -2.3193,-8.5859 -0.4127,-1.8654 -0.6236,-2.8292 -1.0743,-4.5567 l -0.7968,-3.1161 c -0.6704,-1.656 -0.0669,-0.3778 -0.6049,-1.0919 -1.2884,1.582 -1.2751,2.4268 -1.4089,5.044 -0.1732,3.3982 -0.1165,2.8281 -0.9087,5.4918 L 244.3552,416.52 c -0.1729,1.4003 -6.3989,41.0131 -7.4633,43.1229 -0.4362,0.8665 -0.2937,0.6151 -0.7602,1.1574 -0.7331,-3.7018 -2.0648,-6.6042 -3.0697,-10.2274 -6.3845,-23.0403 -14.0485,-45.0712 -20.8097,-67.8164 -4.7662,-15.1534 -9.1341,-31.9909 -14.4411,-47.4789 -1.4,-4.0844 -11.645,-39.2624 -13.1165,-41.4232 -18.1301,-0.6455 -36.369,-4.1525 -54.3594,-4.9289 -17.858,-0.7721 -36.3719,-3.9098 -54.445,-5.1503 2.2739,-2.082 9.9873,-1.1718 14.9091,-1.163 l 46.2345,0.0799 c 19.7396,0.0423 41.8229,-0.807 61.2745,0.2588 6.0633,7.0285 29.1005,97.1856 33.541,100.4817" /><path
         id="path16"
         style="fill:#ed1c24;fill-opacity:1;fill-rule:evenodd;stroke:none"
         d="m 211.604,270.7211 10.162,32.6846 c 1.2985,4.0714 3.7862,9.9003 4.6629,13.1939 3.7208,-3.388 8.1278,-38.0849 9.3507,-45.7183 1.4133,-8.8316 2.5183,-12.746 3.8052,-23.0111 l 11.9781,-68.0924 c 2.2989,-13.6721 5.2098,-33.3346 7.9432,-45.7067 l 1.55,3.1172 c 0.4085,1.3641 0.5465,2.2743 0.9057,3.5813 l 35.1434,122.7311 c 0.5524,2.7698 0.7894,3.8821 3.6742,4.0726 10.6549,0.7038 23.6435,0.195 34.5603,0.2806 11.664,0.0915 23.216,0.4348 34.5368,0.6049 2.8006,0.0422 30.6955,0.2152 32.9916,1.6605 -16.9393,0.5976 -33.3332,2.2655 -49.7257,2.6827 l -37.3416,1.8976 c -5.2461,0.4972 -11.1756,-0.2807 -12.6091,1.8014 -0.9598,1.3958 -2.1126,17.1238 -2.0633,17.5847 0.2282,2.1447 -1.1254,14.3932 -1.9965,15.4341 -3.664,-4.756 -31.6695,-111.8753 -35.9311,-127.1568 -0.7183,-2.5053 0.1395,-1.9486 -1.3901,-2.844 -0.8651,2.7292 -1.6591,8.3126 -2.1257,10.995 l -2.831,16.7326 c -0.394,1.9383 -1.0352,3.7049 -1.2665,5.1225 l -3.7017,22.6565 c -0.3374,3.6348 -0.9321,7.9344 -1.6651,11.4502 l -13.1119,71.6009 c -0.4845,5.1384 -0.6327,3.4926 -1.0412,5.7521 -1.4307,7.901 -3.3792,23.1505 -5.1429,30.4716 l -0.8359,2.0151 c -0.0511,0.2996 -0.1905,0.3402 -0.3229,0.4828 -2.6753,-5.1574 -4.7546,-13.3665 -6.6971,-19.5622 -1.9599,-6.2464 -3.9782,-13.163 -6.1926,-19.3791 -0.9567,-2.6855 -11.6235,-37.9071 -12.8228,-39.018 -1.2257,-1.2912 -14.7234,-1.5049 -17.3755,-1.1415 -3.619,0.5133 -49.3634,-3.0665 -58.5862,-3.2352 -7.0983,-0.1293 -13.0408,-0.8317 -18.5981,-2.4049 l 24.7558,-0.7036 c 16.9886,-0.1992 35.3324,-1.188 51.6433,-1.2126 l 24.1322,-0.1934 c 1.2418,0.3694 0.852,0.2296 1.5791,0.7733" /><path
         id="path18"
         style="fill:#234ea0;fill-opacity:1;fill-rule:nonzero;stroke:none"
         d="m 72.6055,297.6871 v 98.2386 H 111.507 V 384.4769 H 90.8252 v -29.4222 h 17.3579 V 343.6058 H 90.8252 V 309.136 h 20.6818 v -11.4489 z m 44.9339,0 v 103.1423 l 17.235,1.6211 V 297.6871 Z m 26.6321,18.9173 v 62.6199 c 1.6004,0.5746 3.4265,1.0465 5.4986,1.4363 2.052,0.4105 4.1653,0.7798 6.3196,1.1492 2.1747,0.3486 4.2883,0.6154 6.3811,0.7999 2.0721,0.1848 3.9189,0.2667 5.519,0.2667 3.5499,0 6.73,-0.2871 9.5205,-0.8821 2.7697,-0.5746 5.1497,-1.6209 7.1402,-3.1391 1.9695,-1.5389 3.4877,-3.5498 4.4932,-6.0528 1.0258,-2.5033 1.5389,-5.7039 1.5389,-9.6024 v -18.5068 c -0.0822,-7.0991 -2.0109,-12.1672 -5.8272,-15.1625 -3.7956,-3.0164 -9.0071,-4.5139 -15.6138,-4.5139 h -7.7352 v -10.1359 c 0,-2.7904 0.4924,-4.8421 1.4772,-6.1347 0.9643,-1.2926 2.9341,-1.9491 5.8475,-1.9491 1.9492,0 4.1035,0.123 6.4222,0.3691 2.3185,0.2259 5.1908,0.7387 8.5762,1.4978 l 1.9902,-9.6021 c -3.6521,-0.8824 -7.1194,-1.4978 -10.4434,-1.8468 -3.3239,-0.3486 -6.6271,-0.5127 -9.9102,-0.5127 -7.0372,0 -12.331,1.5182 -15.8805,4.5754 -3.5495,3.0364 -5.3141,8.166 -5.3141,15.3266 z m 17.2349,18.7532 h 5.7039 c 2.1954,0 3.7959,0.6565 4.7602,1.9902 0.9848,1.3337 1.4772,3.7343 1.4772,7.2221 v 17.5428 c 0,3.488 -0.5131,6.1554 -1.539,7.9608 -1.0051,1.8056 -2.7697,2.7085 -5.2319,2.7085 -0.9643,0 -1.9698,-0.0618 -2.9749,-0.1848 -1.0259,-0.1231 -1.7646,-0.2257 -2.1955,-0.3079 z" /><path
         id="path20"
         style="fill:#234ea0;fill-opacity:1;fill-rule:nonzero;stroke:none"
         d="m 330.1795,316.3995 v 62.6198 c 1.6005,0.5746 3.4265,1.0466 5.4987,1.4364 2.052,0.4104 4.1652,0.7798 6.3195,1.1491 2.1748,0.3487 4.2883,0.6154 6.3811,0.8 2.0721,0.1848 3.9189,0.2667 5.5191,0.2667 3.5498,0 6.73,-0.2872 9.5204,-0.8821 2.7697,-0.5746 5.1497,-1.6209 7.1402,-3.1391 1.9695,-1.539 3.4877,-3.5499 4.4932,-6.0529 1.0258,-2.5032 1.5389,-5.7038 1.5389,-9.6023 v -18.5068 c -0.0822,-7.0991 -2.0109,-12.1672 -5.8272,-15.1626 -3.7956,-3.0163 -9.0071,-4.5139 -15.6138,-4.5139 h -7.7351 V 314.676 c 0,-2.7904 0.4923,-4.8421 1.4771,-6.1347 0.9643,-1.2926 2.9341,-1.9491 5.8476,-1.9491 1.9491,0 4.1034,0.123 6.4222,0.369 2.3184,0.2259 5.1908,0.7387 8.5762,1.4979 l 1.9902,-9.6021 c -3.6522,-0.8824 -7.1195,-1.4979 -10.4434,-1.8468 -3.3239,-0.3487 -6.6271,-0.5128 -9.9102,-0.5128 -7.0373,0 -12.331,1.5183 -15.8806,4.5754 -3.5495,3.0365 -5.3141,8.1661 -5.3141,15.3267 z m 17.235,18.7531 h 5.7038 c 2.1955,0 3.7959,0.6565 4.7603,1.9902 0.9847,1.3337 1.4771,3.7344 1.4771,7.2221 v 17.5428 c 0,3.488 -0.5131,6.1554 -1.5389,7.9608 -1.0052,1.8057 -2.7698,2.7085 -5.2319,2.7085 -0.9644,0 -1.9698,-0.0618 -2.975,-0.1848 -1.0259,-0.123 -1.7646,-0.2256 -2.1954,-0.3078 z m 36.316,-18.9995 v 45.6931 c 0.0822,6.935 1.9698,11.9616 5.6424,15.0599 3.6728,3.0983 8.9251,4.6576 15.7371,4.6576 h 7.7967 v 19.0607 l 17.2349,1.6212 V 300.0674 c -1.6004,-0.5335 -3.4469,-0.9848 -5.5193,-1.3952 -2.0722,-0.4102 -4.1857,-0.7796 -6.3604,-1.1489 -2.1543,-0.3694 -4.2679,-0.6157 -6.3607,-0.7798 -2.0721,-0.1642 -3.8982,-0.2461 -5.4986,-0.2461 -3.5292,0 -6.7093,0.2872 -9.5406,0.8411 -2.8315,0.5541 -5.2322,1.6004 -7.1609,3.0982 -1.9491,1.4979 -3.4262,3.5292 -4.4317,6.0733 -1.0258,2.544 -1.5389,5.7653 -1.5389,9.6431 z m 17.2349,1.3748 c 0,-3.4058 0.472,-6.0528 1.3953,-7.9608 0.9232,-1.9083 2.7082,-2.893 5.3552,-2.9749 1.0051,0 1.9284,0.0408 2.7697,0.123 0.8617,0.0819 1.662,0.2256 2.4211,0.4102 v 64.0972 h -5.7243 c -2.2161,0 -3.7959,-0.6769 -4.7602,-2.0106 -0.9644,-1.3337 -1.4568,-3.7547 -1.4568,-7.2428 z m 38.1833,-1.3748 v 46.8627 c 0,6.7708 1.7442,11.736 5.2115,14.8958 3.4676,3.1801 8.8432,4.7599 16.1064,4.7599 4.7807,0 8.8637,-0.3691 12.2695,-1.1078 l -1.7438,-9.6023 c -1.0874,0.1641 -2.257,0.3078 -3.5496,0.4308 -1.2722,0.123 -2.6059,0.1848 -3.96,0.1848 -2.7289,0 -4.5958,-0.5952 -5.6013,-1.7645 -1.0054,-1.19 -1.4978,-3.1598 -1.4978,-5.9298 v -50.535 c 0,-2.7289 0.4924,-4.6987 1.4978,-5.9295 1.0055,-1.2106 2.8724,-1.826 5.6013,-1.826 1.3541,0 2.6878,0.0204 3.96,0.0819 1.2926,0.0615 2.4622,0.1026 3.5496,0.1641 l 1.7438,-9.356 c -3.4058,-0.6565 -7.4888,-0.9848 -12.2695,-0.9848 -7.1812,0 -12.5362,1.5183 -16.0449,4.5754 -3.5084,3.0365 -5.273,8.0635 -5.273,15.0803 z m 36.5831,1.3133 v 9.315 h 17.2349 v -9.4587 c 0,-2.3596 0.205,-4.2471 0.6358,-5.6628 0.4105,-1.4156 0.9644,-2.5032 1.6212,-3.2417 0.6769,-0.7387 1.3952,-1.2311 2.1747,-1.457 0.7798,-0.246 1.6004,-0.369 2.4418,-0.369 0.6769,0 1.5386,0.0408 2.5645,0.123 1.0258,0.0819 1.9082,0.2256 2.6263,0.4102 v 16.2501 c 0,2.6878 -0.3487,4.6369 -1.0463,5.868 -0.7183,1.2107 -2.052,2.1339 -4.0215,2.7289 l -15.573,5.4783 c -2.9341,1.0054 -5.1089,2.5852 -6.5245,4.7395 -1.4159,2.1747 -2.1339,5.622 -2.1339,10.3408 v 26.4883 c 1.6823,0.5746 3.5699,1.067 5.6423,1.4979 2.0929,0.4515 4.2061,0.8209 6.3604,1.1491 2.1339,0.3076 4.2268,0.5539 6.2374,0.7385 2.0313,0.1848 3.8778,0.2667 5.5604,0.2667 4.7806,0 8.6584,-0.4924 11.6334,-1.4771 2.9957,-0.9848 5.2937,-2.3596 6.9146,-4.1653 1.6415,-1.8054 2.7289,-4.0008 3.3239,-6.586 0.5745,-2.5852 0.8617,-5.5193 0.8617,-8.8021 v -7.1606 H 505.031 v 7.3043 c 0,2.4004 -0.2053,4.3291 -0.595,5.7654 -0.4105,1.4156 -0.944,2.5237 -1.6005,3.2828 -0.6769,0.7591 -1.3952,1.2311 -2.2158,1.4363 -0.8002,0.2052 -1.6005,0.3078 -2.4007,0.3078 -0.4513,0 -1.2104,-0.0411 -2.2569,-0.1233 -1.067,-0.0819 -2.0721,-0.2052 -2.9954,-0.3486 v -16.9067 c 0,-1.7646 0.2256,-3.0983 0.6976,-4.0008 0.4513,-0.9029 1.313,-1.5594 2.5645,-1.9494 l 13.8495,-4.8215 c 1.4774,-0.513 2.8727,-1.1284 4.1653,-1.8056 1.313,-0.6772 2.5645,-1.6416 3.7955,-2.852 1.2107,-1.2311 2.2159,-2.8108 3.0161,-4.7395 0.8002,-1.9083 1.2107,-4.3087 1.2107,-7.1609 v -27.8013 c -1.7646,-0.5335 -3.6522,-1.0259 -5.6835,-1.4772 -2.0313,-0.4719 -4.1034,-0.8617 -6.2169,-1.1491 -2.1337,-0.3076 -4.2265,-0.5335 -6.2782,-0.6976 -2.0724,-0.1642 -3.9396,-0.2461 -5.6219,-0.2461 -4.7807,0 -8.6381,0.4717 -11.613,1.436 -2.9546,0.9644 -5.273,2.3596 -6.9146,4.1857 -1.6412,1.8261 -2.7493,4.0011 -3.3443,6.5452 -0.5746,2.5441 -0.8617,5.4782 -0.8617,8.8021" /><path
         id="path22"
         style="fill:#234ea0;fill-opacity:1;fill-rule:nonzero;stroke:none"
         d="m 308.6289,241.3633 h 2.1177 v 11.6926 h 0.0442 l 1.7649,-11.6926 h 2.0299 l 1.7648,11.6926 h 0.044 v -11.6926 h 2.2946 v 15.4431 h -3.4636 l -1.5444,-11.0528 h -0.0442 l -1.5443,11.0528 h -3.4636 z m 12.9753,0 h 2.2501 l 0.4414,3.0223 h 2.7575 v 0.0442 l 0.4414,-3.0665 h 2.4267 l -2.5149,15.4431 h -3.2873 z m 2.9783,5.1182 1.0588,7.6334 h 0.0442 l 1.0811,-7.6334 z m 8.2542,-5.1182 h 2.162 v 11.2734 h 0.0442 l 2.9121,-11.2734 h 2.493 v 15.4431 h -2.1622 v -9.2438 h -0.044 l -2.3607,9.2438 h -3.0444 z m 14.6962,-0.2206 c 2.3828,0 3.6182,1.412 3.6182,3.8827 v 11.781 h -2.3386 V 244.849 c 0,-1.1032 -0.4632,-1.5001 -1.2353,-1.5001 -0.7722,0 -1.2354,0.3969 -1.2354,1.5001 v 11.9574 h -2.4267 v -11.781 c 0,-2.4707 1.2353,-3.8827 3.6178,-3.8827 z m 8.9825,0.2206 h 2.4267 v 13.2369 h 2.537 v 2.2062 h -7.5007 v -2.2062 h 2.537 z m 7.8792,0 h 6.6183 v 2.2062 h -4.1916 v 4.7432 h 3.3313 v 2.2062 h -3.3313 v 4.0813 h 4.1916 v 2.2062 h -6.6183 z m 9.7545,0 h 2.162 v 11.2734 h 0.0442 l 2.9121,-11.2734 h 2.493 v 15.4431 h -2.1622 v -9.2438 h -0.044 l -2.3607,9.2438 h -3.0444 z m 18.1599,10.2364 v 1.6325 c 0,2.3828 -1.2353,3.7948 -3.5739,3.7948 -2.3383,0 -3.5739,-1.412 -3.5739,-3.7948 v -8.295 c 0,-2.2062 1.059,-3.5739 3.0665,-3.7723 v -1.0591 h 0.1103 c 0.5516,0 0.8163,-0.1545 0.8163,-0.5737 0,-0.375 -0.1766,-0.5295 -0.5737,-0.5295 -0.2426,0 -0.4853,0.1105 -0.4853,0.4413 v 0.1766 h -1.6325 v -0.2208 c 0,-1.0148 0.9046,-1.2795 2.1178,-1.2795 1.3238,0 2.2504,0.1544 2.2504,1.3458 0,0.7722 -0.5516,1.037 -1.5222,1.037 v 0.6619 c 1.9636,0.2205 3.0002,1.5882 3.0002,3.7723 v 2.1841 h -2.2944 v -2.3604 c 0,-1.0151 -0.4852,-1.412 -1.2132,-1.412 -0.7282,0 -1.2135,0.3969 -1.2135,1.412 v 8.6258 c 0,1.0148 0.4853,1.4341 1.2135,1.4341 0.728,0 1.2132,-0.4193 1.2132,-1.4341 v -1.787 z m 4.8348,6.1552 c 0.2868,0.6177 0.5295,0.8603 0.8824,0.8603 0.2648,0 0.4856,-0.1321 0.7501,-0.2866 0.331,-0.1987 0.7282,-0.4192 1.3237,-0.4192 0.8385,0 1.4562,0.6177 2.0078,1.8533 l -1.1693,0.7058 c -0.2868,-0.6177 -0.5295,-0.8603 -0.8824,-0.8603 -0.2648,0 -0.4856,0.1324 -0.7503,0.2869 -0.3308,0.1984 -0.728,0.4189 -1.3235,0.4189 -0.8385,0 -1.4562,-0.6177 -2.0078,-1.853 z m -2.2723,-16.3916 h 2.2502 l 0.4413,3.0223 h 2.7576 v 0.0442 l 0.4413,-3.0665 h 2.4268 l -2.5149,15.4431 h -3.2874 z m 2.9784,5.1182 1.0587,7.6334 h 0.0443 l 1.0811,-7.6334 z m 11.7178,-5.3388 c 2.3826,0 3.6842,1.412 3.6842,3.8827 v 8.1187 c 0,2.4709 -1.3016,3.8829 -3.6842,3.8829 -2.3828,0 -3.6844,-1.412 -3.6844,-3.8829 v -8.1187 c 0,-2.4707 1.3016,-3.8827 3.6844,-3.8827 z m 0,2.2062 c -0.7721,0 -1.2577,0.419 -1.2577,1.5222 v 8.4275 c 0,1.1029 0.4856,1.5222 1.2577,1.5222 0.7722,0 1.2575,-0.4193 1.2575,-1.5222 v -8.4275 c 0,-1.1032 -0.4853,-1.5222 -1.2575,-1.5222 z m 10.5926,-1.9856 h 2.4267 v 6.9494 h 2.6033 v -6.9494 h 2.4268 v 15.4431 h -2.4268 v -6.2875 h -2.6033 v 6.2875 h -2.4267 z m 14.5199,-0.2206 c 2.3825,0 3.6841,1.412 3.6841,3.8827 v 8.1187 c 0,2.4709 -1.3016,3.8829 -3.6841,3.8829 -2.3828,0 -3.6845,-1.412 -3.6845,-3.8829 v -8.1187 c 0,-2.4707 1.3017,-3.8827 3.6845,-3.8827 z m 0,2.2062 c -0.7722,0 -1.2578,0.419 -1.2578,1.5222 v 8.4275 c 0,1.1029 0.4856,1.5222 1.2578,1.5222 0.7721,0 1.2574,-0.4193 1.2574,-1.5222 v -8.4275 c 0,-1.1032 -0.4853,-1.5222 -1.2574,-1.5222 z m 10.2174,-2.2062 c 2.3828,0 3.6624,1.412 3.6624,3.9269 0,1.9193 -0.6398,3.1549 -2.6694,4.9419 -1.5885,1.3898 -2.0959,2.2059 -2.0959,3.3313 0,1.0587 0.4413,1.478 1.2132,1.478 0.7722,0 1.2135,-0.4193 1.2135,-1.5222 v -0.7943 h 2.2944 v 0.6398 c 0,2.4709 -1.1693,3.8829 -3.5297,3.8829 -2.3607,0 -3.6182,-1.412 -3.6182,-3.8387 0,-1.7649 0.6619,-3.0226 2.6915,-4.8096 1.5886,-1.3898 2.0739,-2.2059 2.0739,-3.4857 0,-1.1472 -0.4853,-1.5441 -1.2575,-1.5441 -0.7721,0 -1.2577,0.3969 -1.2577,1.5001 v 1.0591 h -2.2944 v -0.8827 c 0,-2.4707 1.1914,-3.8827 3.5739,-3.8827 z m 6.7984,0.2206 h 2.4267 v 6.2875 h 1.1472 c 2.4267,0 3.6181,1.3456 3.6181,3.8166 v 1.5222 c 0,2.4709 -1.1914,3.8168 -3.6181,3.8168 h -3.5739 z m 2.4267,8.4937 v 4.7432 h 1.1472 c 0.7721,0 1.1914,-0.3529 1.1914,-1.4561 v -1.8312 c 0,-1.103 -0.4193,-1.4559 -1.1914,-1.4559 z m 7.8353,-8.4937 h 2.4267 v 15.4431 h -2.4267 z m 7.8791,0 h 2.4268 v 13.2369 h 2.537 v 2.2062 h -7.5008 v -2.2062 h 2.537 z m 6.2246,0 h 2.2502 l 0.4413,3.0223 h 2.7576 v 0.0442 l 0.4413,-3.0665 h 2.4268 l -2.5149,15.4431 h -3.2874 z m 2.9784,5.1182 1.0587,7.6334 h 0.0443 l 1.0811,-7.6334 z m 8.2542,-5.1182 h 6.4199 v 2.2062 h -3.9932 v 13.2369 h -2.4267 z m 8.7837,0 h 2.2502 l 0.4413,3.0223 h 2.7576 v 0.0442 l 0.4413,-3.0665 h 2.4267 l -2.5148,15.4431 h -3.2874 z m 2.9784,5.1182 1.0587,7.6334 h 0.0442 l 1.0812,-7.6334 z m 8.2542,-5.1182 h 2.4267 v 6.6183 h 0.8382 c 1.1033,0 1.5225,-0.4632 1.5225,-1.8972 v -2.8239 c 0,-1.2574 0.0882,-1.5001 0.2206,-1.8972 h 2.4709 c -0.2426,0.5737 -0.2647,1.125 -0.2647,1.8751 v 2.7136 c 0,1.743 -0.3972,2.8902 -1.6107,3.2652 v 0.044 c 1.0811,0.4413 1.5885,1.4561 1.5885,3.0447 v 0.9484 c 0,2.3828 -1.0811,3.5521 -3.596,3.5521 h -3.596 z m 2.4267,8.8245 v 4.4124 h 1.103 c 0.8606,0 1.2356,-0.4853 1.2356,-1.5885 v -1.1914 c 0,-1.2354 -0.5516,-1.6325 -1.4562,-1.6325 z" /><path
         id="path24"
         style="fill:#234ea0;fill-opacity:1;fill-rule:nonzero;stroke:none"
         d="m 72.7863,241.0914 h 6.702 v 2.234 h -4.2446 v 4.803 h 3.3735 v 2.234 h -3.3735 v 4.1329 h 4.2446 v 2.234 h -6.702 z m 8.1094,0 h 6.501 v 2.234 H 83.353 v 13.4039 h -2.4573 z m 9.6956,16.6879 h 1.8541 l 2.3905,2.569 h -2.6807 z m -2.0106,-16.6879 h 6.7019 v 2.234 H 91.038 v 4.803 h 3.3736 v 2.234 H 91.038 v 4.1329 h 4.2446 v 2.234 h -6.7019 z m 10.0307,0 h 2.4573 v 13.4039 h 2.5691 v 2.234 h -7.5955 v -2.234 h 2.5691 z m 6.2104,0 h 2.4573 v 6.702 h 0.849 c 1.1172,0 1.5415,-0.4691 1.5415,-1.9213 v -2.8593 c 0,-1.2737 0.0893,-1.5191 0.2234,-1.9214 h 2.5021 c -0.2457,0.5809 -0.2681,1.1393 -0.2681,1.899 v 2.7476 c 0,1.7648 -0.402,2.9268 -1.6308,3.3063 v 0.0448 c 1.0947,0.4467 1.6084,1.4743 1.6084,3.083 v 0.9606 c 0,2.4126 -1.0945,3.5966 -3.6414,3.5966 h -3.6414 z m 2.4573,8.936 v 4.4679 h 1.1172 c 0.8711,0 1.2509,-0.4915 1.2509,-1.6083 v -1.2065 c 0,-1.2509 -0.5584,-1.6531 -1.4743,-1.6531 z m 6.5455,-8.936 h 2.4574 v 15.6379 h -2.4574 z m 7.7522,-0.2233 c 2.3681,0 3.619,1.4298 3.619,3.8423 v 2.2116 h -2.3233 v -2.3902 c 0,-1.0278 -0.4915,-1.4298 -1.2288,-1.4298 -0.7373,0 -1.2285,0.402 -1.2285,1.4298 v 8.7347 c 0,1.0279 0.4912,1.4522 1.2285,1.4522 0.7373,0 1.2288,-0.4243 1.2288,-1.4522 v -1.8093 h 2.3233 v 1.6531 c 0,2.4126 -1.2509,3.8424 -3.619,3.8424 -2.368,0 -3.619,-1.4298 -3.619,-3.8424 v -8.3999 c 0,-2.4125 1.251,-3.8423 3.619,-3.8423 z m 4.4456,0.2233 h 2.2785 l 0.447,3.0606 h 2.7924 v 0.0448 l 0.4468,-3.1054 h 2.4573 l -2.5466,15.6379 h -3.3288 z m 3.0158,5.1829 1.0723,7.7295 h 0.0448 l 1.0945,-7.7295 z m 10.1647,-5.1829 h 6.702 v 2.234 h -4.2446 v 4.803 h 3.3735 v 2.234 h -3.3735 v 4.1329 h 4.2446 v 2.234 h -6.702 z m 11.6839,0 h 6.7019 v 2.234 h -4.2446 v 4.803 h 3.3735 v 2.234 h -3.3735 v 4.1329 h 4.2446 v 2.234 h -6.7019 z m 8.1093,0 h 6.501 v 2.234 h -4.0436 v 13.4039 h -2.4574 z m 7.685,0 h 6.702 v 2.234 h -4.2446 v 4.803 h 3.3735 v 2.234 h -3.3735 v 4.1329 h 4.2446 v 2.234 h -6.702 z m 10.0307,0 h 2.4574 v 13.4039 h 2.569 v 2.234 h -7.5954 v -2.234 h 2.569 z m 6.2104,0 h 2.4574 v 6.702 h 0.849 c 1.1171,0 1.5414,-0.4691 1.5414,-1.9213 v -2.8593 c 0,-1.2737 0.0893,-1.5191 0.2234,-1.9214 h 2.5022 c -0.2458,0.5809 -0.2682,1.1393 -0.2682,1.899 v 2.7476 c 0,1.7648 -0.402,2.9268 -1.6308,3.3063 v 0.0448 c 1.0948,0.4467 1.6084,1.4743 1.6084,3.083 v 0.9606 c 0,2.4126 -1.0944,3.5966 -3.6414,3.5966 h -3.6414 z m 2.4574,8.936 v 4.4679 h 1.1171 c 0.8711,0 1.251,-0.4915 1.251,-1.6083 v -1.2065 c 0,-1.2509 -0.5585,-1.6531 -1.4743,-1.6531 z m 7.1039,7.7519 h 1.8544 l 1.1393,1.2288 1.1392,-1.2288 h 1.8544 l -1.832,2.569 h -2.3233 z m 2.9937,-16.9112 c 2.4125,0 3.7306,1.4298 3.7306,3.9316 v 8.2213 c 0,2.5019 -1.3181,3.9317 -3.7306,3.9317 -2.4126,0 -3.7307,-1.4298 -3.7307,-3.9317 v -8.2213 c 0,-2.5018 1.3181,-3.9316 3.7307,-3.9316 z m 0,2.2339 c -0.7818,0 -1.2734,0.4244 -1.2734,1.5415 v 8.5337 c 0,1.1172 0.4916,1.5415 1.2734,1.5415 0.7818,0 1.2733,-0.4243 1.2733,-1.5415 v -8.5337 c 0,-1.1171 -0.4915,-1.5415 -1.2733,-1.5415 z m 5.3838,-2.0106 h 2.1895 v 11.4157 h 0.0445 l 2.9489,-11.4157 h 2.5245 v 15.6379 h -2.1895 v -9.3603 h -0.0445 l -2.3904,9.3603 h -3.083 z m 9.5392,0 h 2.4573 v 15.6379 h -2.4573 z m 7.7521,-0.2233 c 2.3681,0 3.619,1.4298 3.619,3.8423 v 2.2116 h -2.3232 v -2.3902 c 0,-1.0278 -0.4916,-1.4298 -1.2289,-1.4298 -0.7372,0 -1.2285,0.402 -1.2285,1.4298 v 8.7347 c 0,1.0279 0.4913,1.4522 1.2285,1.4522 0.7373,0 1.2289,-0.4243 1.2289,-1.4522 v -1.8093 h 2.3232 v 1.6531 c 0,2.4126 -1.2509,3.8424 -3.619,3.8424 -2.368,0 -3.6189,-1.4298 -3.6189,-3.8424 v -8.3999 c 0,-2.4125 1.2509,-3.8423 3.6189,-3.8423 z m 4.4456,0.2233 h 2.2785 l 0.447,3.0606 h 2.7924 v 0.0448 l 0.4468,-3.1054 h 2.4573 l -2.5466,15.6379 h -3.3287 z m 3.0158,5.1829 1.0723,7.7295 h 0.0448 l 1.0945,-7.7295 z" /></g></g></svg>
