<?xml version="1.0" encoding="UTF-8" standalone="no"?>
<!-- Created with Inkscape (http://www.inkscape.org/) -->

<svg width="210mm" height="297mm" viewBox="0 0 210 297" version="1.1" id="svg1" inkscape:version="1.4 (86a8ad7, 2024-10-11)" sodipodi:docname="logo.svg"
   xmlns:inkscape="http://www.inkscape.org/namespaces/inkscape"
   xmlns:sodipodi="http://sodipodi.sourceforge.net/DTD/sodipodi-0.dtd"
   xmlns="http://www.w3.org/2000/svg"
   xmlns:svg="http://www.w3.org/2000/svg">
   <sodipodi:namedview id="namedview1" pagecolor="#ffffff" bordercolor="#000000" borderopacity="0.25" inkscape:showpageshadow="2" inkscape:pageopacity="0.0" inkscape:pagecheckerboard="0" inkscape:deskcolor="#d1d1d1" inkscape:document-units="mm" inkscape:zoom="0.68862935" inkscape:cx="397.16576" inkscape:cy="445.08704" inkscape:window-width="1920" inkscape:window-height="991" inkscape:window-x="-9" inkscape:window-y="-9" inkscape:window-maximized="1" inkscape:current-layer="layer1" />
   <defs id="defs1" />
   <g inkscape:label="Camada 1" inkscape:groupmode="layer" id="layer1">
      <path d="M 84.917196,41.76668" style="fill:#234ea0;fill-opacity:1;fill-rule:evenodd;stroke:none;stroke-width:0.352778" id="path1" />
      <path d="M 159.79429,66.37293" style="fill:#234ea0;fill-opacity:1;fill-rule:evenodd;stroke:none;stroke-width:0.352778" id="path1-1" />
      <path id="path14" style="fill:#234ea0;fill-opacity:1;fill-rule:evenodd;stroke:none;stroke-width:0.352778" d="m 108.14995,107.26474 0.54067,3.5941 2.41233,14.09559 c 0.14368,0.63352 0.14009,1.14081 0.24158,1.78202 0.0893,0.56371 0.29499,1.01099 0.3791,1.64959 0.64632,4.90629 1.65632,9.6417 2.4765,14.53572 l 1.17411,7.31657 c 0.51449,2.07582 3.15048,17.1347 3.09298,17.9554 l 0.20782,1.88973 c 0.49911,-0.20931 0.31951,0.0759 0.68831,-0.59091 0.27499,-0.4965 0.22828,-0.43501 0.25089,-1.0197 -0.0447,-0.66629 1.10278,-4.68422 1.38028,-5.64702 0.48733,-1.68758 0.99773,-3.69517 1.55321,-5.47867 l 3.08529,-11.07232 c 0.56532,-2.39752 5.70491,-21.13781 6.2527,-22.02769 l 3.6419,18.7023 c 3.19462,0.24719 17.92111,0.006 22.29803,-0.009 3.59628,-0.0118 20.07189,0.34312 21.9765,-0.3678 -3.446,-0.18669 -38.52961,-3.28129 -38.8004,-3.4593 -0.62943,-0.47548 -0.82272,-3.79367 -1.2064,-5.48429 -0.8141,-4.71699 -1.46501,-9.70491 -2.38883,-14.3577 l -2.4631,-14.15979 c -0.6114,-2.4323 -1.23468,-10.024889 -2.11377,-11.297989 -0.17142,0.31189 -1.40042,5.3177 -1.54961,6.02657 -0.41039,1.950219 -0.9295,4.293299 -1.47221,6.225999 -1.1115,3.9589 -2.01331,8.29581 -3.0812,12.44653 -1.06179,4.12608 -1.983,7.98699 -3.02168,12.32489 -0.48222,2.01228 -1.0141,4.12249 -1.52503,6.15639 -0.26469,1.05251 -0.58988,1.99941 -0.81819,3.02892 -0.1456,0.65807 -0.22,0.99808 -0.37899,1.6075 l -0.2811,1.09929 c -0.2365,0.5842 -0.0236,0.13328 -0.21339,0.3852 -0.45452,-0.5581 -0.44983,-0.85612 -0.49703,-1.77941 -0.0611,-1.19881 -0.0411,-0.99769 -0.32057,-1.93739 l -7.10893,-43.806109 c -0.061,-0.49399 -2.25739,-14.46851 -2.63289,-15.2128 -0.15388,-0.30568 -0.10361,-0.21699 -0.26818,-0.4083 -0.25862,1.30591 -0.72841,2.32981 -1.08292,3.608 -2.25231,8.1281 -4.956,15.90011 -7.3412,23.924119 -1.681414,5.34578 -3.222314,11.28567 -5.094504,16.7495 -0.49389,1.44088 -4.1081,13.8509 -4.62721,14.61318 -6.39589,0.22772 -12.83017,1.46491 -19.17679,1.73881 -6.2999,0.27238 -12.83119,1.37929 -19.206982,1.81691 0.802181,0.73448 3.523297,0.41338 5.259602,0.41028 l 16.3105,-0.0282 c 6.96369,-0.0149 14.75419,0.28469 21.61628,-0.0913 2.139,-2.4795 10.266014,-34.28492 11.832524,-35.44771" sodipodi:nodetypes="ccccccccccccccccscccccccccccccccccccccccccccccc" />
      <path id="path16" style="fill:#ed1c24;fill-opacity:1;fill-rule:evenodd;stroke:none;stroke-width:0.352778" d="m 101.00782,147.02685 3.58493,-11.5304 c 0.45808,-1.4363 1.33569,-3.4926 1.64497,-4.65451 1.31261,1.19521 2.86731,13.43551 3.29872,16.1284 0.49858,3.11559 0.8884,4.4965 1.34239,8.1178 l 4.22561,24.02149 c 0.811,4.82321 1.8379,11.7597 2.80218,16.12431 l 0.54681,-1.09968 c 0.14411,-0.48123 0.19279,-0.80233 0.31951,-1.26341 l 12.39781,-43.2968 c 0.19487,-0.97712 0.27848,-1.36952 1.29617,-1.43672 3.75881,-0.24829 8.3409,-0.0688 12.19211,-0.099 4.1148,-0.0323 8.19009,-0.15339 12.18381,-0.2134 0.98799,-0.0149 10.82869,-0.0759 11.63871,-0.58578 -5.97581,-0.21082 -11.75922,-0.79922 -17.54212,-0.9464 l -13.17329,-0.66943 c -1.85071,-0.1754 -3.9425,0.099 -4.44821,-0.6355 -0.3386,-0.4924 -0.74528,-6.04089 -0.72789,-6.20349 0.0805,-0.7566 -0.39701,-5.0776 -0.70432,-5.4448 -1.29258,1.67781 -11.17229,39.46711 -12.67569,44.85809 -0.2534,0.88381 0.0492,0.68742 -0.4904,1.0033 -0.30519,-0.9628 -0.58529,-2.9325 -0.7499,-3.87879 l -0.99871,-5.90289 c -0.139,-0.68379 -0.3652,-1.30701 -0.44679,-1.80711 l -1.30588,-7.99271 c -0.11903,-1.28227 -0.32883,-2.79908 -0.58741,-4.03937 l -4.62559,-25.25921 c -0.17092,-1.81271 -0.2232,-1.23211 -0.36731,-2.02921 -0.50472,-2.7873 -1.19211,-8.16698 -1.8143,-10.74971 l -0.29489,-0.71088 c -0.018,-0.10569 -0.0672,-0.12001 -0.11391,-0.17032 -0.94379,1.81942 -1.67732,4.71541 -2.36259,6.90111 -0.69141,2.20359 -1.40342,4.64361 -2.18461,6.83652 -0.3375,0.94738 -4.100514,13.37278 -4.523604,13.76468 -0.4324,0.45551 -5.19409,0.53089 -6.12969,0.4027 -1.2767,-0.18109 -17.41431,1.08179 -20.66791,1.1413 -2.50412,0.0456 -4.6005,0.29341 -6.56099,0.8484 l 8.73329,0.24821 c 5.9932,0.0703 12.46449,0.4191 18.21861,0.42778 l 8.513304,0.0682 c 0.43808,-0.13032 0.30057,-0.081 0.55707,-0.27281" sodipodi:nodetypes="cccccccccccsccccccccccccccccccccscccccccc" />
   </g>
</svg>
